<svg width="60" height="60" viewBox="0 0 60 60" fill="none" xmlns="http://www.w3.org/2000/svg">
<path d="M7.9 9.8V50.3C3 44.9 0 37.8 0 30C0 22.2 3 15.1 7.9 9.8Z" fill="white"/>
<path d="M11.1001 14.2L28.4001 48.9H11.1001V14.2Z" fill="white"/>
<path d="M30 45L13 11.1H47L30 45Z" fill="white"/>
<path d="M30 0C37.8 0 44.9001 3 50.2001 7.9H9.80005C15.1 3 22.2 0 30 0Z" fill="white"/>
<path d="M48.9001 48.9H31.6001L48.9001 14.2V48.9Z" fill="white"/>
<path d="M50.2001 52.1C44.9001 57 37.8 60 30 60C22.2 60 15.1 57 9.80005 52.1H50.2001Z" fill="white"/>
<path d="M52.1001 50.2V9.8C57.0001 15.1 60.0001 22.2 60.0001 30C60.0001 37.8 57.0001 44.9 52.1001 50.2Z" fill="white"/>
</svg>
