<svg width="60" height="60" viewBox="0 0 60 60" fill="none" xmlns="http://www.w3.org/2000/svg">
<path d="M29.9869 34.5833C32.9391 34.5833 35.3324 32.189 35.3324 29.2355C35.3324 26.282 32.9391 23.8877 29.9869 23.8877C27.0346 23.8877 24.6414 26.282 24.6414 29.2355C24.6414 32.189 27.0346 34.5833 29.9869 34.5833Z" fill="white"/>
<path d="M59.9739 29.2353C59.9739 25.0353 55.0456 21.3832 47.3794 19.1919C49.309 11.444 48.631 5.33968 44.9804 3.25272C41.3299 1.13968 35.7236 3.61794 29.987 9.14838C24.2503 3.59185 18.6441 1.13968 14.9935 3.25272C11.9687 5.00055 10.8475 9.43533 11.8644 15.7484C12.0469 16.8701 12.3077 18.0179 12.5945 19.2179C4.92829 21.4092 0 25.0614 0 29.2614C0 33.4614 4.92829 37.0875 12.5945 39.3049C12.3077 40.4788 12.0469 41.6527 11.8644 42.7745C10.8475 49.0875 11.9687 53.5223 14.9935 55.2701C15.8801 55.7919 16.897 56.0527 18.0183 56.0527C20.678 56.0527 23.8853 54.5919 27.3794 51.7484C28.2399 51.044 29.1265 50.2353 29.987 49.4006C30.8475 50.2353 31.734 51.044 32.5945 51.7484C36.0887 54.5919 39.296 56.0527 41.9557 56.0527C43.0769 56.0527 44.0939 55.7919 44.9804 55.2701C48.0052 53.5223 49.1265 49.0875 48.1356 42.7745C47.9531 41.6527 47.6923 40.5049 47.4055 39.3049C55.0717 37.1136 60 33.4614 60 29.2614L59.9739 29.2353ZM43.6767 5.4962C46.0235 6.85272 46.545 11.8092 44.8501 18.5397C42.399 17.9658 39.7132 17.5484 36.8709 17.2875C35.2282 14.9658 33.5072 12.8527 31.8123 11.0005C35.7757 7.16577 39.4524 5.07881 41.9817 5.07881C42.6336 5.07881 43.2073 5.20924 43.7027 5.4962H43.6767ZM38.3572 34.0614C37.4185 35.6527 36.4537 37.2179 35.4628 38.6788C33.7158 38.8092 31.8905 38.8875 30.013 38.8875C28.1356 38.8875 26.3103 38.8092 24.5632 38.6788C23.5724 37.2179 22.5815 35.6527 21.6688 34.0614C20.7301 32.444 19.8957 30.8527 19.1134 29.2353C19.8957 27.6179 20.7301 26.0266 21.6688 24.4092C22.6076 22.7658 23.5984 21.2266 24.5632 19.7919C26.3103 19.6614 28.1356 19.5832 30.013 19.5832C31.8905 19.5832 33.7158 19.6614 35.4628 19.7919C36.4537 21.2266 37.4185 22.7658 38.3572 24.4092C39.2699 26.0005 40.1304 27.6179 40.9126 29.2353C40.1565 30.8266 39.322 32.4179 38.3572 34.0614ZM42.2686 32.2875C42.9987 34.0353 43.6245 35.731 44.146 37.4006C42.4772 37.7658 40.678 38.1049 38.7744 38.3397C39.4003 37.3745 40 36.3832 40.5997 35.3658C41.1995 34.3484 41.7471 33.3049 42.2686 32.2875ZM29.987 45.5919C28.8136 44.3136 27.6402 42.9049 26.4928 41.3919C27.6402 41.444 28.7875 41.4701 29.987 41.4701C31.1864 41.4701 32.3338 41.444 33.4811 41.3919C32.3338 42.9049 31.1604 44.2875 29.987 45.5919ZM21.1995 38.3397C19.296 38.1049 17.4967 37.7919 15.8279 37.4006C16.3494 35.731 16.9752 34.0353 17.7053 32.2875C18.2269 33.3049 18.7744 34.3484 19.3742 35.3658C19.9739 36.3832 20.5737 37.3745 21.1995 38.3397ZM17.7053 26.1571C16.9752 24.4092 16.3494 22.7136 15.8279 21.044C17.4967 20.6788 19.296 20.3397 21.1995 20.1049C20.5737 21.0701 19.9739 22.0614 19.3742 23.0788C18.7744 24.0962 18.2269 25.1136 17.7053 26.1571ZM29.987 12.8527C31.1343 14.1049 32.3077 15.5136 33.4811 17.0527C32.3338 17.0005 31.1864 16.9745 29.987 16.9745C28.7875 16.9745 27.6402 17.0005 26.4928 17.0527C27.6662 15.5136 28.8136 14.1049 29.987 12.8527ZM40.5997 23.1049C40 22.0875 39.4003 21.0962 38.7744 20.131C40.678 20.3658 42.4772 20.6788 44.146 21.0701C43.6506 22.7136 43.0248 24.4092 42.2686 26.1832C41.7471 25.1658 41.1734 24.1223 40.5997 23.1049ZM14.4198 15.331C13.6115 10.244 14.2894 6.67011 16.2973 5.52229C16.7927 5.23533 17.3664 5.1049 18.0183 5.1049C20.5476 5.1049 24.2243 7.19185 28.1877 11.0266C26.4668 12.8788 24.7718 14.9919 23.1291 17.3136C20.2868 17.5745 17.601 17.9919 15.1499 18.5658C14.8631 17.4701 14.6284 16.3745 14.472 15.3571L14.4198 15.331ZM2.60756 29.2353C2.60756 26.5223 6.62321 23.6005 13.2986 21.6962C14.0548 24.1223 15.0456 26.6527 16.219 29.2353C15.0456 31.7919 14.0548 34.3223 13.2986 36.7745C6.64928 34.8701 2.60756 31.9745 2.60756 29.2353ZM25.7366 49.6614C21.7471 52.8962 18.3051 54.0962 16.2973 52.9484C14.2894 51.8006 13.6115 48.2006 14.4198 43.1397C14.5763 42.0962 14.837 41.0266 15.0978 39.931C17.5489 40.5049 20.2347 40.9223 23.0769 41.1832C24.7197 43.4788 26.4146 45.6179 28.1356 47.4962C27.3272 48.2788 26.5189 49.0353 25.7106 49.6875L25.7366 49.6614ZM45.5541 43.1397C46.3624 48.2266 45.6845 51.8006 43.6767 52.9484C41.6688 54.0962 38.2269 52.8962 34.2373 49.6614C33.4289 49.0092 32.6206 48.2527 31.8123 47.4701C33.5593 45.5919 35.2542 43.4788 36.8709 41.1832C39.7132 40.9223 42.399 40.5049 44.8501 39.931C45.1369 41.0266 45.3716 42.1223 45.528 43.1397H45.5541ZM46.6754 36.7484C45.9192 34.3223 44.9283 31.7919 43.7549 29.2092C44.9544 26.6005 45.9192 24.0701 46.6754 21.6701C53.3507 23.5745 57.3664 26.4701 57.3664 29.2092C57.3664 31.9484 53.3507 34.844 46.6754 36.7484Z" fill="white"/>
</svg>
