<svg width="60" height="57" viewBox="0 0 60 57" fill="none" xmlns="http://www.w3.org/2000/svg">
<path fill-rule="evenodd" clip-rule="evenodd" d="M58.726 14.753L53.4085 22.188L48.0911 14.753H50.9903C50.7693 9.22877 46.2059 4.80936 40.6285 4.80936C35.9221 4.80936 31.9308 7.96794 30.6696 12.2704C29.1355 11.7764 27.5494 11.4645 25.9373 11.3215C26.1193 10.6326 26.3533 9.94367 26.6393 9.28076C27.4064 7.474 28.4985 5.84922 29.8896 4.45841C31.2807 3.06759 32.9058 1.96274 34.713 1.20884C36.5851 0.402946 38.5743 0 40.6285 0C42.6827 0 44.6718 0.402946 46.544 1.19584C48.3511 1.96274 49.9763 3.05459 51.3674 4.44541C52.7585 5.83622 53.8506 7.46101 54.6176 9.26776C55.3587 11.0095 55.7617 12.8553 55.8007 14.753H58.726Z" fill="white"/>
<path fill-rule="evenodd" clip-rule="evenodd" d="M51.2893 56.1524V52.9548H32.9578C33.0878 52.8898 33.2178 52.8378 33.3478 52.7729C35.337 51.824 37.1701 50.5891 38.8083 49.0813C39.0293 48.8734 39.2373 48.6784 39.4323 48.4834C39.6533 48.2625 39.8873 48.0285 40.1084 47.7815C40.3684 47.4956 40.6284 47.1966 40.8624 46.8976H51.2893V43.7001L60 49.9262L51.2893 56.1524Z" fill="white"/>
<path fill-rule="evenodd" clip-rule="evenodd" d="M44.5287 33.0546C44.5287 35.8232 43.9827 38.5139 42.9166 41.0485C42.0065 43.2063 40.7324 45.182 39.1463 46.9108C38.9382 47.1317 38.7302 47.3527 38.5222 47.5737C38.3272 47.7687 38.1322 47.9506 37.9372 48.1456C36.403 49.5624 34.6869 50.7193 32.8147 51.6161C32.5547 51.7461 32.2817 51.8631 32.0087 51.9801C31.9957 51.9801 31.9957 51.9931 31.9827 51.9931C30.4225 52.656 28.7454 52.981 27.0422 52.981H0V46.9368H25.1051C32.6977 46.9368 38.9252 40.8666 39.0292 33.2756C39.0292 33.2106 39.0292 33.1456 39.0292 33.0806C39.0292 24.7877 32.2947 18.0546 24 18.0546C15.7053 18.0286 8.97075 24.7487 8.97075 33.0546H12.455L6.22752 41.7635L0 33.0546H3.48429C3.48429 30.286 4.03034 27.5953 5.09642 25.0607C6.13651 22.617 7.60563 20.4203 9.49079 18.5356C11.3759 16.6508 13.5731 15.169 16.0173 14.1421C18.5525 13.0763 21.2438 12.5304 24.013 12.5304C24.572 12.5304 25.1181 12.5564 25.6641 12.5953C27.2763 12.7253 28.8494 13.0373 30.3835 13.5442C30.9296 13.7262 31.4626 13.9212 31.9957 14.1551C34.4399 15.195 36.637 16.6638 38.5222 18.5486C40.4074 20.4333 41.8895 22.63 42.9166 25.0737C43.9827 27.5953 44.5287 30.286 44.5287 33.0546Z" fill="white"/>
</svg>
